PathFileType  4	(X/Y/Z) C:\Users\antoi\Documents\MyRepositories\mobilecap\ResultsAnalysis
DataRate	CameraRate	NumFrames	NumMarkers	Units	OrigDataRate	OrigDataStartFrame	OrigNumFrames
100.0	100.0	4	51	mm	100.0	203	231
Frame#	Time	r_knee			r_shank_antsup			r_ankle			r_calc			r_5meta			r_toe			L_knee			L_shank_antsup			L_ankle			L_calc			L_5meta			L_toe			r_sh2			r_sh3			r_sh4			L_sh2			L_sh3			r_thigh1			r_thigh2			r_thigh3			r_thigh4			r_thigh5			L_thigh1			L_thigh2			L_thigh3			L_thigh4			r.ASIS			r.PSIS			L.ASIS			L.PSIS			C7			R_Shoulder			L_Shoulder			R_Sternum			L_Sternum			R_humerus			R_elbow_med			R_elbow_lat			R_forearm			R_wrist_radius			R_wrist_ulna			L_humerus			L_elbow_med			L_elbow_lat			L_forearm			L_wrist_radius			L_wrist_ulna			R_HJC			L_HJC			R_HJC_reg			L_HJC_reg			
		X1	Y1	Z1	X2	Y2	Z2	X3	Y3	Z3	X4	Y4	Z4	X5	Y5	Z5	X6	Y6	Z6	X7	Y7	Z7	X8	Y8	Z8	X9	Y9	Z9	X10	Y10	Z10	X11	Y11	Z11	X12	Y12	Z12	X13	Y13	Z13	X14	Y14	Z14	X15	Y15	Z15	X16	Y16	Z16	X17	Y17	Z17	X18	Y18	Z18	X19	Y19	Z19	X20	Y20	Z20	X21	Y21	Z21	X22	Y22	Z22	X23	Y23	Z23	X24	Y24	Z24	X25	Y25	Z25	X26	Y26	Z26	X27	Y27	Z27	X28	Y28	Z28	X29	Y29	Z29	X30	Y30	Z30	X31	Y31	Z31	X32	Y32	Z32	X33	Y33	Z33	X34	Y34	Z34	X35	Y35	Z35	X36	Y36	Z36	X37	Y37	Z37	X38	Y38	Z38	X39	Y39	Z39	X40	Y40	Z40	X41	Y41	Z41	X42	Y42	Z42	X43	Y43	Z43	X44	Y44	Z44	X45	Y45	Z45	X46	Y46	Z46	X47	Y47	Z47	X48	Y48	Z48	X49	Y49	Z49	X50	Y50	Z50	X51	Y51	Z51	

203	2.02000000	-186.05965	745.61750	-370.72282	-220.19197	705.49909	-342.33158	-301.27004	359.81860	-396.74564	-360.30102	374.55163	-452.62083	-248.94990	231.50074	-365.14124	-198.51674	221.50670	-415.82347	-161.65216	784.68983	-731.37371	-140.70390	700.97418	-751.49223	-231.02014	388.40434	-761.11495	-298.22945	369.71207	-712.97708	-141.36022	281.94750	-789.36961	-93.49973	284.13094	-735.98198	-248.19064	592.77001	-339.37911	-153.62072	693.05705	-379.73918	-180.32980	582.72816	-388.96113	-225.21183	724.09157	-763.31375	-241.86799	603.73855	-777.26096	-191.57824	1037.70754	-329.00737	-175.56514	923.32273	-327.89070	-125.22503	911.46431	-351.03997	-126.31618	1043.24621	-421.20716	-105.93956	934.62818	-411.73932	-168.67969	1104.94500	-696.04110	-148.68085	968.63699	-732.48611	-279.59926	1089.68642	-705.08524	-261.31582	949.85064	-708.48584	-149.17372	1220.12839	-384.45418	-332.18210	1278.35614	-548.61741	-147.48418	1226.47787	-614.05661	-330.10650	1268.10956	-451.84152	-211.82306	1728.46159	-509.00244	-141.22904	1695.95523	-345.73091	-150.32641	1682.30366	-668.62069	-93.88625	1638.89011	-484.00573	-104.66834	1632.49397	-524.10234	-225.89997	1509.51629	-213.01142	-306.46885	1424.01679	-228.44201	-279.44725	1443.95652	-168.37939	-185.68065	1333.68292	-140.49698	-130.09661	1245.99754	-151.81886	-141.01369	1254.63418	-105.69635	-200.24117	1463.40158	-763.40147	-257.90010	1351.92508	-718.03236	-236.77205	1361.31334	-786.32140	-92.51683	1358.51271	-745.14898	-5.75516	1376.12636	-687.69834	3.26874	1334.66640	-700.85891	-225.43953	1145.32879	-418.66533	-237.05886	1162.18489	-608.23368	-186.48228	1321.53880	-571.61834	-183.24944	1305.57830	-420.89549	
204	2.03000000	-187.58115	744.50799	-368.95471	-221.96697	703.90401	-340.21160	-297.15651	357.34217	-394.64291	-357.07060	367.99619	-451.04660	-238.59487	232.57766	-360.70412	-187.74130	223.94574	-411.66858	-163.22063	784.01519	-731.15711	-141.36018	700.59369	-751.94046	-228.18246	386.54437	-762.19564	-295.47485	366.21359	-714.38989	-135.88509	282.37069	-789.45469	-88.43270	286.26276	-735.85394	-247.89356	590.58959	-337.37792	-154.98341	692.53584	-377.36562	-179.67184	581.62406	-386.77571	-226.04328	722.88328	-764.10141	-241.41208	602.37634	-778.25768	-191.22910	1037.44820	-328.07778	-175.13140	922.92984	-326.57711	-125.49774	910.65425	-350.60714	-127.40619	1041.70385	-422.29527	-107.00366	933.46245	-411.77498	-168.52532	1104.66746	-695.09046	-149.10011	968.40060	-732.20414	-279.50608	1090.14717	-704.79043	-262.00294	950.23729	-708.73682	-148.81222	1219.26974	-384.57442	-331.89114	1278.65044	-546.92189	-148.14609	1227.16176	-613.13926	-329.81368	1268.49068	-450.12608	-212.85627	1727.67341	-507.26771	-142.78399	1695.58448	-343.75565	-151.86997	1682.99383	-666.13831	-95.25394	1638.77793	-482.31745	-105.41503	1632.48354	-521.72620	-229.27463	1505.46898	-216.33854	-311.72164	1421.55891	-234.89786	-284.19123	1439.15559	-174.84291	-193.28164	1326.41643	-149.65190	-139.75827	1237.50909	-163.77579	-150.12618	1244.62757	-116.91144	-197.48857	1462.60948	-759.76519	-256.34198	1351.62141	-714.68876	-233.88378	1360.32238	-782.76766	-90.20489	1354.91061	-739.88985	-3.68328	1370.51448	-681.59588	4.82197	1328.94775	-694.84156	-225.24215	1144.73517	-418.55598	-237.77683	1163.21990	-607.91502	-185.91915	1321.32537	-571.00060	-182.69816	1305.57201	-420.91579	
205	2.04000000	-189.38651	742.37454	-367.05923	-223.91279	700.82872	-337.70349	-292.85839	353.63549	-392.77052	-353.36346	360.18179	-450.02376	-228.32740	232.38417	-357.16346	-176.87445	225.84939	-408.02463	-164.82696	782.35384	-731.31727	-142.10751	699.30649	-752.36268	-225.38646	383.71679	-763.42168	-292.72226	362.05336	-716.03716	-130.92998	281.44292	-789.70594	-83.87593	286.86907	-735.86902	-247.80257	587.35921	-335.34674	-156.53221	690.95854	-374.70241	-179.18937	579.62106	-384.51431	-227.00421	720.57441	-764.53050	-241.08140	599.85110	-779.05407	-190.12947	1035.94694	-327.62471	-174.22342	921.63952	-324.99140	-125.55371	908.76971	-350.34460	-128.81453	1039.22731	-423.53479	-108.33792	931.13744	-412.09336	-168.42765	1103.26614	-694.38358	-149.76900	966.87684	-731.73403	-279.43370	1089.55388	-704.53723	-262.79823	949.40115	-708.57288	-148.44815	1217.38162	-384.43195	-331.61933	1277.88124	-545.35104	-148.70452	1226.80620	-612.41417	-329.42352	1267.94950	-448.89318	-213.78712	1725.89966	-505.36707	-144.18734	1693.90359	-341.87023	-153.31938	1682.60976	-663.65184	-96.62732	1637.43135	-480.61961	-104.17066	1633.56396	-519.07732	-232.73407	1500.48834	-219.70268	-316.99397	1418.14549	-241.38729	-289.59987	1433.98434	-180.73802	-200.40849	1319.32938	-158.61781	-148.04255	1229.79891	-174.81528	-158.04769	1234.46974	-127.83916	-195.17015	1461.26169	-756.75106	-254.76482	1350.35994	-711.94818	-230.88692	1358.57108	-779.74980	-87.96014	1350.78593	-734.79633	-1.93653	1364.88168	-675.75529	6.06194	1323.07262	-688.78192	-225.14508	1143.13403	-418.56406	-238.31686	1163.24609	-607.71392	-185.32104	1320.17207	-570.54540	-181.91079	1304.75311	-420.77848	
206	2.05000000	-191.29636	739.27703	-364.77146	-225.85920	696.68641	-335.10030	-288.41308	348.58785	-391.51539	-349.02397	351.47403	-449.25355	-218.44788	230.87485	-354.44576	-166.37592	226.97442	-404.70668	-166.42610	779.73555	-731.78921	-142.95577	696.99336	-752.52466	-222.76837	380.08444	-764.80691	-290.11136	357.31338	-717.82237	-126.59671	279.07212	-790.14491	-79.88382	285.79365	-736.16170	-247.35447	582.85711	-333.63427	-158.13965	688.39061	-371.89298	-178.67655	576.67699	-382.10241	-228.03841	717.37353	-764.89217	-240.85431	596.46253	-779.87590	-188.78727	1033.64325	-327.20007	-173.23156	919.44378	-323.35772	-125.38073	906.00060	-350.21717	-130.21948	1036.05463	-424.61871	-109.86861	927.79828	-412.41980	-168.45752	1100.78385	-693.62626	-150.61738	964.22519	-731.17573	-279.52508	1087.65466	-703.80233	-263.67589	947.46815	-708.09057	-148.13825	1214.37987	-384.11606	-331.35200	1276.15939	-544.08117	-149.04124	1225.16634	-611.81415	-328.98277	1266.60685	-447.88785	-214.58242	1723.20047	-503.34658	-145.60991	1691.10950	-339.83088	-154.37156	1680.78675	-661.38588	-97.98824	1634.77811	-478.98633	-103.60377	1632.94579	-516.72848	-236.34687	1494.65912	-223.03538	-321.73367	1414.60682	-248.48738	-295.43957	1428.29759	-186.00214	-206.94883	1312.17687	-167.10408	-154.01720	1223.00583	-183.76214	-165.27891	1225.31472	-138.40429	-193.37657	1459.01218	-754.09286	-253.19822	1347.95845	-709.93124	-227.97471	1355.87324	-777.23475	-85.85111	1346.00398	-729.99264	-0.50967	1359.14931	-670.10733	7.14479	1317.13990	-682.77977	-225.28336	1140.52783	-418.61535	-238.77467	1162.17713	-607.57201	-184.50826	1317.86880	-570.29550	-180.82163	1303.00551	-420.62683	
